<?xml version="1.0" standalone="no"?>
<!DOCTYPE svg PUBLIC "-//W3C//DTD SVG 1.1//EN" "http://www.w3.org/Graphics/SVG/1.1/DTD/svg11.dtd" >
<svg xmlns="http://www.w3.org/2000/svg" xmlns:xlink="http://www.w3.org/1999/xlink" version="1.1">
<metadata>
Created by FontForge 20190801 at Wed Feb 11 13:55:02 2015
 By Jimmy Wärting
Created with the help of MyScriptFont.com
Copyright belongs to the Creator.
</metadata>
<defs>
<font id="WoodsScript" horiz-adv-x="10" >
  <font-face 
    font-family="WoodsScript"
    font-weight="500"
    font-stretch="normal"
    units-per-em="1000"
    panose-1="3 0 6 3 0 0 0 0 0 0"
    ascent="800"
    descent="-200"
    x-height="509.5"
    cap-height="649"
    bbox="9.15217 -55 768.396 801"
    underline-thickness="50"
    underline-position="-150"
    unicode-range="U+0020-20AC"
  />
<missing-glyph horiz-adv-x="364" 
d="M33 0v666h265v-666h-265zM66 33h199v600h-199v-600z" />
    <glyph glyph-name=".notdef" horiz-adv-x="364" 
d="M33 0v666h265v-666h-265zM66 33h199v600h-199v-600z" />
    <glyph glyph-name=".null" horiz-adv-x="0" 
 />
    <glyph glyph-name="nonmarkingreturn" horiz-adv-x="333" 
 />
    <glyph glyph-name="space" unicode=" " horiz-adv-x="420" 
 />
    <glyph glyph-name="exclam" unicode="!" horiz-adv-x="271" 
d="M160 652q17 21 52.5 2t44.5 -54q5 -21 2.5 -40t-17.5 -67q-15 -45 -25 -85q-10 -42 -70 -172q-21 -45 -46 -56.5t-47 13.5q-14 16 -11.5 55.5t20.5 73.5q33 65 53 126.5t20 98.5q0 30 7.5 62t16.5 43zM22 83q10 11 30 12t34 -9q23 -16 34 -51t-3 -47q-20 -16 -50.5 -10
t-44.5 29q-12 20 -12 42t12 34z" />
    <glyph glyph-name="numbersign" unicode="#" horiz-adv-x="724" 
d="M270 738q11 13 41.5 3t46.5 -31q9 -11 7 -42t-15 -67q-29 -87 5 -88q8 0 21 4q28 9 33 20t5 64q0 62 7.5 78t37.5 16q20 0 27 -3.5t16 -17.5q26 -38 26 -96q0 -23 2 -27t12 -2q14 5 73 9q41 4 53.5 2.5t23.5 -8.5q24 -17 21 -41.5t-31 -38.5q-10 -5 -74.5 -17.5
t-74.5 -16.5q-29 -12 -29 -53v-18l60 -2q47 -2 63 -8t16 -23q0 -23 -31 -42.5t-82 -30.5q-50 -11 -62 -24q-11 -12 -30 -79q-16 -56 -27 -77.5t-29 -32.5q-11 -7 -16 -6.5t-17 9.5q-16 12 -28 27q-9 13 -8.5 21.5t13.5 46.5q15 49 9.5 59.5t-45.5 10.5q-26 0 -34 -3t-19 -15
q-27 -33 -37 -105q-4 -31 -23 -47q-17 -17 -27.5 -16t-28.5 21q-23 24 -25 45.5t14 80.5q2 8 -3 11.5t-26 7.5q-33 8 -52 20q-14 8 -16.5 15.5t-2.5 41.5t2 39.5t12 3.5q13 -5 67 -8q47 -3 59 3.5t13 35.5l1 22l-70 3q-69 4 -76 8q-8 5 -8 52v46h53q107 0 130 20
q12 11 26 40t14 43q0 15 6 38q2 6 8 34.5t12 53.5t11 31zM390 390q-1 7 -45.5 6.5t-49.5 -7.5q-5 -6 -12.5 -26.5t-7.5 -26.5t38 -6q24 0 33.5 2.5t17.5 11.5q26 28 26 46z" />
    <glyph glyph-name="dollar" unicode="$" horiz-adv-x="545" 
d="M342 745l15 55h74l13 -26q13 -25 13 -60q0 -23 2.5 -29t15.5 -12q21 -8 34.5 -26.5t13.5 -38.5q0 -22 -7 -30q-7 -6 -30 -6t-38 6q-10 5 -15 4t-12 -9q-8 -8 -28.5 -64.5t-20.5 -71.5q0 -7 32.5 -39t40 -32t41 -47.5t40.5 -66.5q15 -44 4 -85.5t-44 -63.5
q-19 -12 -35.5 -14.5t-86.5 -4.5l-97 -2l-19 -21q-12 -15 -20 -18.5t-26 -3.5q-25 0 -35.5 7.5t-14.5 27.5q-3 17 -15.5 30t-29.5 18t-45.5 24t-38.5 32q-8 9 -11.5 30t-1 38.5t9.5 17.5q8 0 39 -15.5t49 -28.5q18 -11 37 -9q7 1 11.5 2t10 8t9.5 15t11 27.5t14 41.5t18 61
l15 50l-27 45q-34 57 -32.5 93.5t38.5 70.5q28 26 62 40q31 14 42 20q9 4 25 60zM386 289q-52 55 -65 25q-12 -30 -22.5 -65.5t-10.5 -46.5q0 -12 4.5 -14t30.5 -2q32 0 62.5 7.5t36.5 16.5q16 25 -36 79z" />
    <glyph glyph-name="percent" unicode="%" horiz-adv-x="727" 
d="M443 556q100 100 124.5 121t39.5 21q22 0 34 -16q21 -26 7.5 -57.5t-63.5 -74.5q-28 -24 -156 -148q-118 -116 -135 -125q-18 -10 -52.5 -60.5t-68.5 -118.5q-16 -30 -22 -36t-22 -8q-14 -1 -20 1.5t-12 11.5q-21 31 8 99q22 51 97 148q14 16 10 20q-3 3 -36 -4
q-32 -8 -66.5 -4.5t-50.5 14.5q-14 10 -29.5 45t-18.5 63q-9 85 106 171q39 30 62.5 36.5t44.5 -6.5q45 -28 69 -95.5t3 -107.5q-16 -32 -2 -32q8 0 149 142zM207 498q-2 22 -14 23q-20 2 -53.5 -24t-33.5 -45q0 -10 11.5 -13.5t29.5 2t35 16.5q18 13 22 19.5t3 21.5z
M523 372q19 6 74 4t76 -15q44 -26 44 -89q0 -25 -4.5 -37.5t-21.5 -38.5q-47 -72 -104 -103t-92 -3q-16 12 -29 38t-13 45q-1 21 16 62q16 39 16 65q0 60 38 72zM646 266q-2 6 -6 8t-10 -0.5t-14 -9.5t-21 -20q-46 -46 -25 -46q18 0 49.5 28t26.5 40z" />
    <glyph glyph-name="ampersand" unicode="&#x26;" 
 />
    <glyph glyph-name="parenleft" unicode="(" horiz-adv-x="272" 
d="M171 643q27 15 50.5 17.5t33.5 -8.5q7 -8 7 -36q0 -20 -5.5 -29t-35.5 -36q-28 -26 -57 -66.5t-30 -54.5q-1 -8 -10 -31q-26 -69 -26 -149q0 -55 16 -76t66 -34q38 -9 48.5 -17.5t2.5 -23.5q-16 -29 -67 -37q-60 -9 -101 36q-22 24 -29 38t-17 53q-10 43 -4 68q7 25 3 33
q-2 6 13 76t15 72q0 10 12 34q10 20 18 42q8 24 36 66q17 26 30 39t31 24z" />
    <glyph glyph-name="parenright" unicode=")" horiz-adv-x="350" 
d="M221 612q26 27 61 -3q30 -26 42 -82.5t16 -195.5q2 -97 -6.5 -144.5t-36.5 -90.5q-45 -71 -126 -86q-38 -7 -66.5 -1t-63.5 30q-45 29 -25 41q6 4 54 9q55 5 99.5 29t59.5 55q25 49 20 199q-2 86 -6.5 117t-15.5 52q-26 50 -6 71z" />
    <glyph glyph-name="asterisk" unicode="*" horiz-adv-x="529" 
d="M213 662q19 19 43.5 5.5t35.5 -49.5q6 -23 12 -23q7 0 35 27q23 22 32.5 25.5t21.5 -5.5q55 -43 9 -103q-23 -30 -20 -35.5t40 -1.5q62 7 79.5 0.5t17.5 -37.5q0 -26 -18 -46q-16 -19 -17 -24.5t11 -20.5q10 -13 11.5 -32.5t-6.5 -28.5q-8 -7 -29 -6.5t-37 9.5
q-25 12 -66 28t-48 16q-12 0 -17.5 -11.5t-7.5 -44.5q-3 -33 -10 -45.5t-22 -12.5t-27 13t-15 33q-5 30 -10 34.5t-31 1.5q-34 -4 -51.5 2t-26.5 25q-8 16 -41.5 42.5t-41.5 38.5q-19 31 1 49.5t60 7.5q24 -7 51 -6.5t27 8.5q0 9 -6 13q-6 3 -19 28t-18 42q-5 18 1.5 38
t19.5 27q9 5 15.5 4.5t18.5 -7.5q14 -9 17.5 -9t7.5 9q7 12 18 22z" />
    <glyph glyph-name="plus" unicode="+" horiz-adv-x="542" 
d="M207 581q8 9 28.5 8t30.5 -11q17 -17 38 -142l7 -47l55 4q139 12 156 -2q10 -7 10 -28q0 -45 -60 -60q-37 -8 -70 -17q-34 -10 -57 -10q-22 0 -29 -7t-8 -74q0 -55 -3.5 -75t-14.5 -27q-10 -6 -32 11q-21 16 -28.5 32t-10.5 56q-5 47 -13 63q-6 12 -13.5 15.5t-37.5 6.5
q-91 7 -130 48q-30 31 -2 59q11 11 15.5 12t18.5 -7q18 -11 85 -11h66l-4 80q-3 83 -3 99.5t6 23.5z" />
    <glyph glyph-name="comma" unicode="," horiz-adv-x="242" 
d="M107 208q13 7 18.5 7t19.5 -5q18 -7 42.5 -31.5t33.5 -44.5q12 -24 11.5 -53.5t-11.5 -48.5q-13 -21 -54.5 -42t-68.5 -21q-33 0 -60.5 16t-27.5 35q0 12 15 25t33 17q17 3 36 24l20 21l-17 37q-13 31 -11.5 42.5t21.5 21.5z" />
    <glyph glyph-name="hyphen" unicode="-" horiz-adv-x="499" 
d="M19 339q7 9 29 9t37 -9q15 -8 178 -9q162 0 185 -5q30 -7 38.5 -29t-12.5 -35q-10 -7 -33 -11.5t-97 -15.5q-48 -7 -156.5 -7t-129.5 7q-28 9 -42 47t3 58z" />
    <glyph glyph-name="period" unicode="." horiz-adv-x="135" 
d="M24 180q12 10 19.5 10.5t31.5 -10.5q50 -23 50 -57q0 -20 -12.5 -33t-33.5 -13q-13 0 -22 5t-23 19q-21 20 -23.5 41.5t13.5 37.5z" />
    <glyph glyph-name="slash" unicode="/" horiz-adv-x="519" 
d="M428 657l16 16l23 -12q69 -35 22 -119q-54 -97 -101 -167q-12 -18 -31.5 -50.5t-39.5 -56.5q-6 -7 -48 -59t-68 -81q-40 -45 -59 -68q-20 -26 -51.5 -46.5t-49.5 -20.5t-26 8.5t-4 22.5q7 19 150 203q90 116 109 143.5t69 114.5q25 42 37 74q27 71 52 98z" />
    <glyph glyph-name="zero" unicode="0" horiz-adv-x="438" 
d="M172 578q20 5 57.5 1.5t63.5 -12.5t56 -35.5t45 -54.5q17 -32 26.5 -80t6.5 -84q-6 -70 -43.5 -125t-88.5 -80.5t-111 -19t-107 49.5q-39 36 -49.5 59t-14.5 87q-4 50 -2.5 68t10.5 44q14 44 27.5 68t39.5 52q50 53 84 62zM301 455q-8 9 -18 11.5t-38 2.5q-31 0 -40 -3.5
t-27 -22.5q-57 -58 -61 -145q-2 -42 1.5 -59t19.5 -35q9 -12 17 -15t28 -3q27 0 45 8.5t43 34.5q56 57 56 121q0 77 -26 105z" />
    <glyph glyph-name="one" unicode="1" horiz-adv-x="434" 
d="M170 628q19 21 36 21q14 0 37.5 -14t30.5 -27q5 -9 2.5 -126t-7.5 -142q-7 -27 -6.5 -78t7.5 -57q7 -7 47 -7q41 0 63 -7.5t34 -24.5q19 -27 -3 -38q-32 -16 -246 -32q-69 -6 -76 -9q-9 -6 -33.5 3t-33.5 21q-11 14 -12 34.5t9 27.5q10 9 59 12q34 3 43 6t14 14
q15 32 26 137q5 57 9 88l3 24l-37 7q-38 7 -52 17t-14 30q0 17 8.5 28t55.5 54q19 18 36 38z" />
    <glyph glyph-name="two" unicode="2" horiz-adv-x="569" 
d="M91 573q135 41 189 -37q13 -18 15.5 -30t2.5 -48q-1 -54 -11 -80q-9 -24 -42 -80t-43 -64q-9 -8 -9 -17q0 -5 22.5 -6t103.5 0q127 4 133 8q7 4 41 0t51 -23q17 -18 15 -28q-4 -27 -111 -38q-76 -7 -205.5 -9t-150.5 4q-26 7 -47 27t-21 38q0 17 19 43.5t45 45.5
q41 31 76 93.5t35 104.5q0 11 -4 13.5t-22 2.5q-26 0 -54 -18q-29 -18 -43.5 -20.5t-33.5 6.5q-26 14 -31 44.5t16 44.5q10 8 64 23z" />
    <glyph glyph-name="three" unicode="3" horiz-adv-x="424" 
d="M179 595q54 12 55 12q3 1 54 -9q114 -22 114 -87q0 -36 -47 -60q-23 -12 -46 -35q-16 -17 -17.5 -28t9 -26t44.5 -50q48 -50 58.5 -67t10.5 -46q0 -19 -3 -28.5t-13 -21.5q-20 -21 -47.5 -24t-100.5 10q-86 16 -118 32q-35 18 -43 27.5t0 24.5q8 16 25 18.5t55 -4.5
q47 -8 80.5 -8t39.5 10q4 6 -3 16.5t-33 38.5q-28 30 -38 45t-18 43q-9 29 -10 40t4 28q8 26 8 41q1 10 -2 12.5t-15 1.5q-18 -2 -54 -20q-66 -34 -100 -1q-16 16 -18 36.5t12 32.5q18 17 157 46z" />
    <glyph glyph-name="four" unicode="4" horiz-adv-x="474" 
d="M67 593q14 16 44 3t43 -39q16 -35 -19 -138q-14 -44 -8.5 -54.5t45.5 -10.5q35 0 44 8t2 33q-6 22 -6.5 59.5t5.5 54.5q7 18 21 26q11 5 16.5 4t19.5 -12q27 -20 37.5 -44t13.5 -67q2 -44 9 -53.5t34 -2.5q39 11 67.5 -3.5t28.5 -45.5q0 -16 -15 -26t-52 -18
q-49 -10 -64 -23.5t-23 -53.5q-8 -38 -18 -51.5t-30 -13.5q-21 0 -40 19q-13 13 -15 21t1 35q3 34 -3 42t-39 12q-64 8 -103.5 33t-49.5 62q-11 40 25 144q9 24 17 62q6 29 12 38z" />
    <glyph glyph-name="five" unicode="5" horiz-adv-x="536" 
d="M394 598q28 7 59.5 5.5t45.5 -10.5q12 -8 22 -25q6 -12 5 -16t-13 -14q-16 -14 -68 -24q-38 -6 -85.5 -18t-76.5 -18q-82 -18 -82 -35q0 -6 44 -52q34 -36 67.5 -88t33.5 -69q0 -11 -18 -33q-28 -31 -77 -46t-94 -6q-31 7 -68.5 30.5t-55.5 48.5q-24 33 -23 73t26 53
q14 8 25 -1t26 -40q24 -46 46 -59t57 -2q23 8 30 17.5t-0.5 25t-32.5 41.5q-28 29 -54 63.5t-37 55.5q-10 21 -12.5 49.5t4.5 42.5q6 10 13.5 12.5t36.5 3.5q46 1 178 20q40 5 78 15z" />
    <glyph glyph-name="six" unicode="6" horiz-adv-x="426" 
d="M161 570q36 31 51 31q16 0 33 -18.5t24 -42.5l7 -26l-37 -33q-29 -26 -51 -55.5t-22 -41.5q0 -6 12.5 -7.5t56.5 -1.5h69l44 -30q36 -25 51.5 -47t16.5 -52q1 -43 -70 -91q-81 -55 -175 -56q-38 -1 -49.5 2.5t-37.5 20.5q-38 27 -54 52.5t-19 64.5q-2 26 0.5 44t12.5 50
q51 161 137 237zM304 263q-3 12 -36.5 12t-56.5 -12q-24 -14 -56 -20q-28 -6 -37.5 -15t-0.5 -21q13 -14 57 -6.5t93 32.5q21 11 29.5 17.5t7.5 12.5z" />
    <glyph glyph-name="seven" unicode="7" horiz-adv-x="710" 
d="M258 625q9 2 32 7t33.5 7t30.5 5.5t31 4t27.5 -0.5t26.5 -4.5t20 -10.5t16 -17q9 -12 7.5 -46t-14.5 -148q-4 -26 3.5 -33.5t31.5 -4.5q29 3 97 3q54 0 64.5 -2t21.5 -15q15 -17 13.5 -35t-18.5 -31q-12 -9 -31 -11t-91 -4q-92 -2 -108 -10t-23 -42q-1 -5 -3 -16
q-6 -41 -16 -56.5t-31 -15.5q-13 0 -22.5 5t-23.5 19l-24 25l4 44l4 44l-47 7q-97 15 -153 22q-24 3 -56.5 21t-36.5 30q-5 15 0.5 29.5t16.5 19.5t64.5 -1t106.5 -18q25 -6 75 -6q48 0 62.5 11t14.5 46q0 30 7 54q7 23 -2 32q-6 6 -14 5.5t-31 -5.5q-12 -4 -82.5 -19
t-90.5 -24q-35 -11 -68 -8t-54.5 20t-16.5 39q4 19 23.5 33.5t43.5 17.5q42 5 180 33z" />
    <glyph glyph-name="eight" unicode="8" horiz-adv-x="396" 
d="M221 614q26 15 62.5 14t64.5 -20q44 -30 37 -95q-4 -27 -19 -51t-54 -62q-27 -27 -31.5 -43.5t10.5 -37.5q12 -18 33 -60q22 -43 20 -72q0 -7 -1 -12t-2 -9.5t-4 -7t-6 -4.5t-9.5 -2h-13t-18 2t-22.5 4t-29 5q-88 16 -125 18q-41 3 -66 21q-50 35 -35 86q5 15 16.5 27
t44.5 37q55 40 55 51q0 12 -29 54q-19 29 -23.5 41.5t-4.5 34.5q0 32 12 48q11 15 27 20t55 6q43 1 55 7zM213 465q0 8 -2.5 9.5t-6.5 -5.5q-4 -6 4 -9q4 1 5 5z" />
    <glyph glyph-name="nine" unicode="9" horiz-adv-x="396" 
d="M134 605q28 17 56.5 20.5t44.5 -8.5q12 -9 54 -6q31 3 39.5 1t24.5 -17q23 -19 29 -44q6 -20 4 -84t-10 -113q-19 -114 -21 -206q-1 -40 -9 -55.5t-28 -15.5q-32 0 -51.5 46t-14.5 107q6 67 5 88t-8 26q-10 6 -30 -10q-83 -70 -154 -23q-29 18 -40 37q-27 46 -8 112
q9 30 32.5 68.5t38.5 48.5l17.5 11t28.5 17zM222 504q-8 12 -19 10.5t-33 -18.5q-47 -35 -47 -69q0 -27 42 5q15 12 33 30q19 20 23.5 27.5t0.5 14.5z" />
    <glyph glyph-name="colon" unicode=":" horiz-adv-x="220" 
d="M107 481q24 24 64 -1q21 -13 30 -27t9 -36q0 -31 -20.5 -44.5t-46.5 0.5q-12 5 -30 31q-16 22 -17.5 43t11.5 34zM27 183q12 9 17 9q7 0 31 -16t31 -25q15 -19 3 -46.5t-36 -27.5q-18 0 -37.5 14t-23.5 30q-4 18 0 36t15 26z" />
    <glyph glyph-name="semicolon" unicode=";" horiz-adv-x="255" 
d="M143 469q15 15 36.5 12t41.5 -24q40 -39 11 -75q-17 -22 -43.5 -15t-45.5 38q-25 40 0 64zM111 281q10 8 34 4.5t39 -14.5q23 -16 30 -60t-8 -72q-9 -19 -43 -42q-21 -14 -33 -18t-30 -4q-37 1 -63.5 22t-26.5 50q0 17 8.5 25t31.5 11.5t30.5 10.5t7.5 25q0 19 6.5 36.5
t16.5 25.5z" />
    <glyph glyph-name="less" unicode="&#x3c;" horiz-adv-x="644" 
d="M343 608q37 26 56 28.5t38 -16.5q24 -24 14 -55t-46 -45q-26 -10 -52 -27q-8 -5 -79 -43t-90 -52q-25 -19 -37 -23q-10 -3 -11.5 -16.5t7.5 -21.5q5 -4 54 -15t98 -19q23 -4 85.5 -21t88.5 -22q47 -9 94.5 -27.5t61.5 -33.5q25 -27 -26 -42q-27 -8 -69 -2.5t-165 35.5
q-37 9 -76 14q-219 28 -259 89q-13 20 -18 52.5t3 52.5q5 15 67.5 57t140.5 83q78 40 120 70z" />
    <glyph glyph-name="equal" unicode="=" horiz-adv-x="738" 
d="M365 480q33 9 162.5 0.5t160.5 -20.5q26 -11 36 -30t-3 -31q-7 -7 -166 -4q-121 2 -202 -4.5t-167 -7.5l-141 -2l-18 20q-17 19 -17 44q0 22 8 28q8 5 167 3q159 -1 180 4zM172.5 339.5q7.5 8.5 21 8.5t24.5 -9q8 -5 48.5 -6.5t173.5 -1.5q210 0 230 -4q27 -5 31 -19
t-18 -28q-40 -26 -209 -32q-156 -6 -201.5 -4.5t-67.5 12.5q-25 14 -32 22q-7 9 -7.5 31t7 30.5z" />
    <glyph glyph-name="greater" unicode="&#x3e;" horiz-adv-x="471" 
d="M18 577q8 13 27.5 12.5t35.5 -14.5q35 -28 105 -28q45 0 125.5 -15.5t101.5 -27.5q19 -12 35 -44q12 -25 12.5 -33t-6.5 -34q-7 -24 -21.5 -42.5t-68.5 -72.5q-77 -80 -121 -107q-14 -8 -74 -46q-52 -32 -88 -9q-27 18 -20 43.5t44 45.5q67 34 149 104t82 93
q0 18 -35.5 27t-134.5 14q-59 4 -74.5 7.5t-33.5 15.5q-25 18 -37 33q-10 14 -11 38.5t8 39.5z" />
    <glyph glyph-name="question" unicode="?" horiz-adv-x="295" 
d="M112 670q30 9 64 6t54 -15q65 -41 53 -127q-6 -45 -89 -138q-76 -85 -76 -99q0 -21 40 -66q26 -29 26 -36q0 -8 -15 -22l-15 -14l-35 11q-33 11 -62 40q-34 34 -39.5 68.5t13.5 94.5q11 36 21.5 51.5t50.5 56.5q57 57 57 65q0 14 -31 2q-10 -4 -20 -10q-26 -16 -41 -14
t-36 22q-15 16 -19 24.5t-2.5 23t7.5 22.5t27 23q31 21 67 31zM134 123q13 10 23.5 6t33.5 -27q19 -20 24 -29t5 -27q0 -25 -7.5 -33t-29.5 -8q-32 0 -53 29.5t-12 61.5q5 18 16 27z" />
    <glyph glyph-name="at" unicode="@" horiz-adv-x="778" 
d="M413 763q61 10 109 -1q42 -10 80 -41t59 -73q12 -24 15.5 -73t-4.5 -92q-9 -53 -27 -121.5t-27 -85.5q-11 -20 -24 -49q-11 -25 -27 -39.5t-31 -14.5t-42 26l-28 25l-18 -11q-54 -32 -83.5 -37.5t-62.5 9.5t-49.5 33t-26.5 51q-10 34 -8.5 54.5t18.5 58.5t32.5 58
t46.5 43q60 46 110 46q22 0 46 -17t33 -38q6 -17 24.5 -38.5t26.5 -21.5q12 0 28 59t10 80q-3 13 -4 36q-1 13 -6.5 23t-21.5 25l-26 26l-71 -3q-72 -1 -95 -13q-33 -16 -81 -66t-87 -109q-68 -101 -84.5 -140.5t-16.5 -102.5q0 -46 11.5 -72t48.5 -64q73 -76 172 -76
q36 0 91.5 18.5t107.5 47.5q9 5 34 19t34 18q35 20 80 64q35 33 52.5 41t29.5 -5q14 -13 1.5 -50.5t-40.5 -68.5q-25 -28 -77.5 -64t-109.5 -65l-56 -27h-287l-37 24q-63 43 -119 149q-15 29 -19 45t-6 51q-2 34 1 54.5t14 62.5q23 77 59.5 139t133.5 188q67 87 194 105z
M429 395q-14 14 -27.5 12t-39 -22.5t-35.5 -35.5t-10 -35q0 -37 34 -28q27 7 61 40q26 26 29.5 40t-12.5 29z" />
    <glyph glyph-name="A" unicode="A" horiz-adv-x="473" 
d="M224 757q20 7 53.5 3t50.5 -15q19 -11 36 -43q13 -22 15.5 -38.5t4.5 -71.5q2 -78 7 -85q6 -7 27 -11q18 -3 31.5 -15.5t13.5 -26.5t-13.5 -27t-31.5 -16q-11 -2 -16.5 -5.5t-10.5 -9t-7.5 -21t-5 -34t-5.5 -56.5q-3 -52 -10.5 -72.5t-24.5 -24.5q-33 -9 -50 31
q-8 17 -9.5 33t1.5 59q2 26 2.5 36.5t-1.5 23t-4 15.5t-11.5 6.5t-18 3.5h-27.5q-33 0 -43.5 -2t-19.5 -11q-9 -11 -22 -53t-18 -81q-4 -25 -19.5 -44t-33.5 -19q-30 0 -45.5 29.5t-3.5 62.5q1 4 14.5 44.5t22.5 58.5q12 25 15 56q4 30 29 72t36 80q13 42 43 101
q19 40 28 52t21 15zM285 637q-15 30 -35 8q-17 -19 -32.5 -73t-6.5 -65q6 -7 37.5 -8t38.5 7q8 8 7.5 61.5t-9.5 69.5z" />
    <glyph glyph-name="B" unicode="B" horiz-adv-x="431" 
d="M178 670q40 8 48 6q72 -14 92 -26q18 -10 41 -47t23 -56q0 -20 -19.5 -50t-44.5 -47q-55 -37 10 -51q23 -4 45 -19.5t34 -34.5q14 -24 14 -61q0 -27 -4.5 -39t-25.5 -43q-33 -47 -51 -57.5t-68 -10.5q-35 0 -53 3t-43 14q-34 14 -52 15.5t-34 -8.5q-15 -10 -34.5 -7
t-30.5 17q-12 17 -14.5 55t7.5 65q6 18 24 96.5t20 87.5q8 27 6.5 41t-14.5 29q-36 41 6 80q32 30 118 48zM270 564q-7 10 -40 12q-25 1 -31 -1.5t-15 -16.5q-13 -20 -13 -39t11.5 -20t41.5 14q59 30 46 51zM241 330q-21 4 -65 10q-24 3 -30 1t-13 -16q-17 -33 -4 -55
t52 -27q71 -9 87.5 -8t33.5 17q20 20 20 40q0 15 -11.5 20.5t-69.5 17.5z" />
    <glyph glyph-name="C" unicode="C" horiz-adv-x="561" 
d="M184 623q27 19 43.5 28t38.5 16.5t39.5 4t40 -15.5t47.5 -35q28 -26 33.5 -42t-7.5 -31q-27 -28 -75 8q-29 21 -37 21q-11 0 -55.5 -31.5t-65.5 -53.5q-41 -44 -68 -107.5t-13 -82.5q17 -17 147 3q33 6 120.5 34t128.5 46q19 8 27 9.5t14 -3.5q19 -16 0.5 -51t-55.5 -52
q-35 -16 -50 -24q-29 -15 -98.5 -35.5t-115.5 -28.5q-47 -8 -74 -6.5t-67 13.5q-20 6 -28.5 12.5t-20.5 28.5q-33 58 -19 109q22 86 81 174q26 39 41 54.5t48 37.5z" />
    <glyph glyph-name="D" unicode="D" horiz-adv-x="414" 
d="M101 633q58 24 175 -97q79 -83 103.5 -126t24.5 -98q0 -68 -47.5 -94t-171.5 -26q-76 0 -104 5.5t-50 26.5q-19 18 -21 36.5t12 45.5q13 23 19 65q8 67 24 151t23 97q6 12 13 14zM227 458q-27 29 -34 29q-21 0 -39 -83q-12 -60 -10.5 -80.5t19.5 -28.5q23 -11 67.5 -6.5
t61.5 19.5q22 20 7 55t-72 95z" />
    <glyph glyph-name="E" unicode="E" horiz-adv-x="507" 
d="M419 646q18 4 42 2.5t29 -6.5q7 -7 7 -32q0 -24 -14 -37t-45 -17q-23 -3 -142 -28q-67 -14 -94.5 -22.5t-37.5 -18.5t-10 -28q0 -20 9.5 -26.5t30.5 -0.5q24 7 47 7q20 0 63.5 8t63.5 16q47 17 69 -10q13 -17 12 -35t-16 -33q-11 -10 -29 -16t-69 -16q-87 -18 -138 -23
q-62 -9 -61 -22q0 -5 9 -12q28 -20 134 -26q64 -3 82.5 -10t23.5 -30q5 -16 -8.5 -33.5t-34.5 -23.5q-58 -15 -162.5 9.5t-133.5 60.5q-7 11 -11.5 24.5t-8.5 32t-8 30.5q-10 29 -8 47.5t18 44.5q38 69 48 145q5 43 14.5 51t47.5 -2q29 -8 44 -7.5t67 9.5q2 0 116 20
q49 7 54 8z" />
    <glyph glyph-name="F" unicode="F" horiz-adv-x="512" 
d="M289 643q57 12 120 10q48 -1 59 -3.5t21 -14.5q12 -14 13.5 -31t-7.5 -29q-17 -22 -78 -22q-38 0 -158 -31q-19 -5 -35 -17t-16 -22q0 -14 14.5 -16t52.5 8q85 22 111 -1q13 -11 8 -33t-24 -37q-9 -7 -62 -22.5t-84 -20.5q-17 -2 -25 -5t-16.5 -17.5t-14 -34.5t-16.5 -65
q-5 -23 -21 -38.5t-31 -11.5q-55 14 -37 103l7 38l-27 30q-34 37 -32.5 69.5t37.5 41.5q24 6 27 8l-2 3.5t-6 8.5t-9 11q-20 22 -16 38q3 13 17.5 28t24.5 15q8 0 32 28l22 28l49 -4q47 -4 102 8z" />
    <glyph glyph-name="G" unicode="G" horiz-adv-x="560" 
d="M276 662q19 5 47 1t51 -14q25 -11 46 -42q36 -54 10 -83q-26 -27 -66 8q-39 36 -81 14q-12 -7 -36.5 -25.5t-26.5 -23.5q-3 -6 -27 -34q-25 -27 -52 -85q-18 -36 -23 -54.5t-6 -49.5q-2 -43 4.5 -53.5t36.5 -10.5q18 0 33 5.5t46 24.5q38 24 82 63t44 49q0 8 -52 8
q-48 0 -70 8.5t-28 29.5q-8 21 -2 38t21 21q16 5 130 6q113 1 153 -9q30 -8 35 -12t5 -19q0 -19 -18 -42q-17 -21 -21 -35q-10 -53 -18 -132q-4 -39 -21.5 -55.5t-41.5 -3.5q-9 5 -16.5 23t-7.5 35q0 21 -22 13q-13 -5 -27 -20q-11 -12 -28.5 -24.5t-40 -26.5t-31.5 -21
q-20 -13 -74 -26.5t-74 -9.5q-18 4 -48 22q-18 12 -25 21t-13 28q-11 39 -12.5 64.5t6.5 63.5q30 147 108 239q23 26 39 47q17 21 54.5 47.5t57.5 31.5z" />
    <glyph glyph-name="H" unicode="H" horiz-adv-x="473" 
d="M122 608q17 17 26 17t36 -24t34.5 -48t0.5 -64q-12 -70 1 -79q9 -5 43 -12t53 -7q21 -1 27 7q10 10 20 124q5 57 16 73q13 16 22.5 16t29.5 -16q23 -19 29.5 -44t-0.5 -67q-8 -42 -3 -103l4 -62l-21 -23q-13 -15 -18.5 -29.5t-13.5 -52.5q-9 -53 -20 -71t-34 -18
q-29 0 -42.5 27t-3.5 67q16 60 -1 74q-9 8 -71 6l-63 -2l-25 -52q-48 -96 -84 -78q-15 9 -17.5 25.5t5.5 58.5q10 48 8.5 61t-19.5 27q-21 16 -27 40q-5 17 -4 23t9.5 15.5t16.5 11t28 -0.5q26 -2 34.5 3.5t17.5 31.5q6 20 -3 54q-10 38 -8.5 56.5t17.5 34.5z" />
    <glyph glyph-name="I" unicode="I" horiz-adv-x="191" 
d="M92 640q9 9 29 9q22 0 38.5 -17t20.5 -44t-6.5 -88t-30.5 -131q-20 -64 -31 -103q-16 -56 -50 -56q-20 0 -31 7.5t-17 25.5q-12 39 18 115q43 106 48 208q4 64 12 74z" />
    <glyph glyph-name="J" unicode="J" horiz-adv-x="514" 
d="M261 637q23 5 60 6q33 0 100.5 -9.5t75.5 -15.5t7.5 -25t-8.5 -30q-18 -22 -95 -22q-44 0 -50 -10t12 -56q17 -50 25 -98q6 -33 6.5 -46t-4.5 -26q-17 -42 -54 -58t-117 -16q-46 0 -67 2.5t-47 11.5q-73 25 -91 75q-10 32 3.5 46.5t38.5 -2.5q13 -8 31 -12.5t62 -9.5
q49 -6 70 -9q14 -3 35 8t30 26t-10.5 81.5t-35.5 76.5q-10 6 -64 -4q-55 -10 -70 -4q-39 14 -39 50q0 42 59 49q73 8 137 21z" />
    <glyph glyph-name="K" unicode="K" horiz-adv-x="524" 
d="M376 724q36 21 51.5 27.5t33.5 6.5q29 0 41 -13q39 -43 -49 -90q-34 -18 -62.5 -40.5t-85.5 -76.5q-52 -50 -63 -67.5t1 -35.5q11 -18 21 -27q11 -8 52 -63q35 -47 52.5 -64t43.5 -31t36 -30q6 -12 5.5 -16.5t-12.5 -16.5q-18 -17 -44 -16t-56 20q-28 18 -76 69t-72 90
q-11 16 -19 16q-15 0 -31.5 -35t-22.5 -80q-4 -30 -17 -42t-39 -10q-27 1 -39 17q-17 24 -14.5 73.5t28.5 149.5q30 118 30 172q0 58 21.5 78t59.5 -3q33 -21 33 -76q0 -27 7 -27q8 0 100 82q28 25 86 59z" />
    <glyph glyph-name="L" unicode="L" horiz-adv-x="559" 
d="M149 683q8 13 24.5 14.5t32.5 -9.5q14 -10 20 -17t8.5 -23.5t-0.5 -37.5t-10 -64q-19 -111 -54 -178q-12 -26 -12 -45q0 -14 3 -16t19 1q19 4 67 10q44 6 48 9q9 5 76 16.5t105 13.5q42 3 57.5 -0.5t15.5 -17.5q0 -8 -26 -36q-18 -21 -33 -28t-79 -24q-78 -21 -170 -38
q-80 -14 -120 -24q-37 -10 -60 -4t-37 29q-31 51 7 110q28 44 55 114t35 121q11 69 16 91.5t12 32.5z" />
    <glyph glyph-name="M" unicode="M" horiz-adv-x="614" 
d="M228 661q26 26 36 31.5t29 5.5q82 0 82 -88q0 -18 2 -22.5t12 -4.5q13 0 40 30q26 31 51 36q39 9 70 -12t45 -67q9 -32 9 -180q0 -147 -7 -170q-5 -20 -22.5 -34t-32.5 -9q-17 5 -27 17.5t-17 37.5q-8 25 -7.5 56t8.5 158q2 40 1 50t-8 13q-11 4 -27 -16
q-19 -22 -52 -90.5t-38 -95.5q-6 -29 -14 -43.5t-24 -23.5q-17 -9 -39.5 3t-30.5 35q-12 31 12 135q5 25 5 82q0 58 -8 58q-12 0 -47.5 -47t-52.5 -86q-28 -59 -37 -84t-17 -62q-10 -48 -21 -62t-38 -14q-41 0 -50 30.5t12 104.5q20 71 42 190q12 53 16 80q4 24 15 35t32 11
t36 -12t20 -12q3 0 42 36z" />
    <glyph glyph-name="N" unicode="N" horiz-adv-x="561" 
d="M461 775l6 25h38q32 0 39 -6t7 -35q0 -23 -14 -44q-12 -18 -35.5 -94t-29.5 -119q-5 -34 -10 -179q-3 -98 -5.5 -122.5t-10.5 -32.5q-11 -11 -27 -16q-15 -3 -37 15t-34 44q-51 109 -63 126q-9 14 -20.5 40.5t-21.5 41.5q-11 16 -17.5 21t-16.5 3q-10 -1 -17 -9.5
t-22 -36.5q-19 -41 -24.5 -59.5t-7.5 -57.5q-2 -43 -9.5 -66.5t-23.5 -36.5q-18 -15 -38.5 -15.5t-37.5 14.5q-11 9 -14 18.5t-5 39.5q-1 30 2.5 48.5t17.5 56.5q22 63 33 101q9 30 27.5 72t26.5 66q13 40 24.5 50t36.5 3q24 -6 38 -22q4 -4 37 -43q64 -73 88 -123
q21 -43 28 -22q1 6 1 18q0 30 29.5 145.5t43.5 143.5q11 20 18 47z" />
    <glyph glyph-name="O" unicode="O" horiz-adv-x="426" 
d="M178 670q32 9 71 6.5t59 -15.5q19 -12 47 -42.5t39 -51.5q29 -57 21 -127.5t-49 -131.5q-25 -37 -50.5 -58t-63.5 -36q-64 -24 -106.5 -24t-82.5 26q-32 20 -41.5 42.5t-11.5 83.5q-2 62 7 103t31 75q20 32 23 54q6 33 34.5 58.5t72.5 37.5zM310 522q-9 15 -20 17.5
t-34 -4.5q-15 -4 -36 -5q-14 -1 -24.5 -8t-33.5 -30q-38 -41 -44 -52q-6 -13 -6 -72.5t7 -66.5t29.5 -7t42.5 7q21 8 55 34.5t48 47.5q23 36 28 74t-12 65z" />
    <glyph glyph-name="P" unicode="P" horiz-adv-x="423" 
d="M160 733q24 20 43.5 9.5t62.5 -65.5q42 -53 54 -67q67 -79 79.5 -99.5t13.5 -54.5q1 -35 -12 -48q-15 -14 -64.5 -25t-101.5 -11q-39 0 -50.5 -2t-19.5 -11q-6 -7 -11.5 -18.5t-7.5 -20t-6.5 -26t-5.5 -22.5q-8 -31 -30.5 -43.5t-47.5 -2.5t-39 40q-6 12 -7 23.5t4 34.5
q5 37 14 55q9 17 9 37q0 21 23 68q23 49 33 89q11 46 32.5 97t34.5 63zM259 537q-22 30 -32.5 26.5t-20.5 -42.5q-7 -29 0 -38q11 -13 41.5 -6t30.5 22q0 11 -19 38z" />
    <glyph glyph-name="Q" unicode="Q" horiz-adv-x="408" 
d="M206 674q18 5 48.5 1.5t43.5 -11.5q14 -9 28 -37q4 -9 20 -39.5t23 -43.5q21 -39 25 -53.5t4 -48.5q0 -31 -3 -45.5t-13 -34.5q-29 -55 -8 -92q13 -20 8.5 -36.5t-16 -27t-30.5 -9.5t-36 16q-18 15 -27 15q-11 0 -54 -22q-42 -22 -72 -23t-65 18q-21 11 -29.5 21.5
t-22.5 38.5q-20 43 -20 66q0 44 18 114t44 129l25 57l46 21q40 19 63 26zM267 522q-12 12 -20.5 15.5t-28.5 3.5q-31 0 -44 -13q-14 -16 -32 -54t-18 -53q0 -19 -12 -58l-12 -40l13 -15q27 -28 71 -1q17 10 17.5 21.5t-13.5 49.5q-13 33 -4 56t30 23t48 -21q24 -22 31 -22
q4 0 5.5 15t0 33t-5.5 27q-7 13 -26 33z" />
    <glyph glyph-name="R" unicode="R" horiz-adv-x="441" 
d="M260 724q12 14 20 18t27 4q16 0 26 -4t23 -15q20 -18 27 -44t4 -73q-4 -67 -29.5 -113t-79.5 -83q-31 -20 -38.5 -28t-7.5 -22q0 -19 20 -38q21 -20 46.5 -26.5t69.5 -3.5q43 4 53 -2t10 -34q0 -33 -24.5 -51t-70.5 -18q-34 0 -89.5 27t-82.5 57q-13 13 -19 13t-13 -15.5
t-10 -39.5q-5 -28 -26.5 -44.5t-44.5 -14t-33 26.5q-8 20 -8 58.5t9 73.5q13 49 26 79.5t34 67.5t36 69q33 68 49 78q24 13 96 97zM269 563.5q0 6.5 -7.5 7.5t-12.5 -4q-5 -4 -4.5 -15t4.5 -11q6 0 13 8t7 14.5z" />
    <glyph glyph-name="S" unicode="S" horiz-adv-x="415" 
d="M218 734q15 5 47.5 2t62.5 -12q29 -8 53 -31t24 -42q0 -29 -27.5 -41.5t-63.5 1.5q-34 13 -51 13t-30 -11q-14 -14 -14 -42q0 -38 15 -62.5t79 -88.5l80 -82v-29q0 -19 -3.5 -27.5t-17.5 -20.5q-21 -21 -53.5 -31t-88.5 -13q-131 -7 -184 42q-26 24 -32 45q-6 16 -3.5 42
t10.5 26q6 0 37 -20q59 -37 139 -33q45 2 49 13t-28 45q-69 73 -91 147.5t6 138.5q9 21 34 42t51 29z" />
    <glyph glyph-name="T" unicode="T" horiz-adv-x="497" 
d="M143 289q0 11 21.5 93t21.5 92q0 5 3.5 22.5t5 28t-3.5 20.5q-6 7 -27.5 7.5t-50.5 -6.5q-22 -5 -48.5 -2.5t-37.5 11.5q-18 13 -17 46t20 43q12 7 61 12q29 3 141.5 16.5t163.5 18.5q53 5 65.5 5t18.5 -6q10 -10 7 -30.5t-17 -34.5q-13 -12 -61 -30t-69 -18
q-14 0 -21 -8t-29.5 -93t-32.5 -143q-12 -68 -28.5 -92t-45.5 -17q-14 4 -27 25t-13 40z" />
    <glyph glyph-name="U" unicode="U" horiz-adv-x="480" 
d="M101 670q8 9 15.5 12.5t24.5 3.5q16 0 25 -3.5t20 -14.5q18 -19 16 -39t-28 -71q-31 -58 -34 -81q-2 -11 -16 -70q-10 -39 -11.5 -98.5t7.5 -67.5q12 -12 30 -1.5t63 56.5q62 62 83 103q15 30 34 65q13 23 18 63q5 37 16.5 54t31.5 19q24 2 37 -3.5t23 -23.5
q23 -37 7 -137q-8 -49 -12 -164q-3 -98 -9.5 -116.5t-36.5 -18.5q-25 0 -37.5 15t-23.5 58q-10 42 -17 42t-55 -49q-60 -61 -95 -80t-70 -10q-28 8 -50.5 33t-33.5 61q-13 40 -13 104.5t12 116.5q4 18 11.5 52.5t12 52.5t13.5 43.5t20 45.5q10 18 10 25t12 23z" />
    <glyph glyph-name="V" unicode="V" horiz-adv-x="423" 
d="M326 733q8 12 23 12.5t29 -7.5t24.5 -24t10.5 -33q0 -47 -138 -303q-112 -205 -132 -221q-16 -13 -42 -5.5t-37 28.5q-15 27 -24 135q-16 189 -24 214q-12 39 -1 63t39 18q38 -8 52.5 -32t23.5 -94q8 -59 12 -76.5t9 -17.5q19 0 60 82q24 48 36 69q10 17 31 67t30 78
q11 32 18 47z" />
    <glyph glyph-name="W" unicode="W" horiz-adv-x="550" 
d="M439 596q0 26 5 48.5t14 37.5t25 14t36 -23q16 -18 20 -51.5t-6 -73.5q-14 -56 -18 -78q-30 -133 -53 -180q-15 -29 -26 -73q-10 -44 -25 -56q-16 -11 -39 -11.5t-35 12t-24 36.5t-15 45q-4 17 -21 76.5t-26 84.5q-5 13 -12.5 15.5t-14.5 -6.5q-7 -7 -22 -62
q-31 -109 -68 -162q-14 -19 -21 -23.5t-25 -4.5q-50 0 -65 47q-7 23 -9 182q-2 172 -4 188q-2 27 7 38q8 9 33 9t39 -9q12 -9 21.5 -29t9.5 -38t7.5 -40t13.5 -22t34 56q20 41 26 48.5t24 8.5q39 3 74 -42t53 -119q11 -47 17 -53q7 -9 14 -6.5t9 15.5q5 25 26 90
q21 73 21 111z" />
    <glyph glyph-name="X" unicode="X" horiz-adv-x="423" 
d="M318 640q22 9 26 9q13 0 30 -31.5t12 -47.5q-4 -9 -27 -48.5t-44 -69.5q-15 -22 -15.5 -44t13.5 -63q14 -42 24 -55.5t58 -56.5q17 -15 17.5 -33.5t-14.5 -36.5q-9 -10 -17 -13t-30 -3q-33 0 -49 10q-13 9 -38 49.5t-30 60.5q-7 33 -18 32q-15 0 -56 -61t-62.5 -83.5
t-43.5 -26.5t-32 2.5t-12 26.5q-1 13 4.5 27t22.5 42q53 87 100 149q23 31 23 41.5t-21 35.5q-42 50 -45 55q-24 28 -31 55.5t4 45t37 17.5q48 0 81 -63q11 -22 17.5 -30.5t16 -7t18.5 13t27 39.5q35 54 54 63z" />
    <glyph glyph-name="Y" unicode="Y" horiz-adv-x="463" 
d="M348 658q23 25 65 7q40 -17 40 -57q0 -18 -26.5 -87t-56.5 -128q-25 -51 -39 -86q-11 -35 -19 -46q-8 -13 -27 -71q-16 -47 -31 -68t-33 -21q-14 0 -32.5 17t-18.5 30q0 46 34 129q21 52 17 60q-4 6 -30 3q-54 -8 -87 30q-19 21 -43 69.5t-39 95.5q-32 102 21 102
q44 0 67 -71q13 -38 28 -68t23 -33q11 -4 33 12.5t67 61.5q58 59 65 81q8 23 22 38z" />
    <glyph glyph-name="Z" unicode="Z" horiz-adv-x="713" 
d="M177 590q20 4 122 3l104 -1l25 -19q26 -17 34 -41q10 -30 -4.5 -55.5t-78.5 -90.5q-102 -104 -102 -122q0 -4 11.5 -5.5t29 1t32.5 7.5q21 7 49 12t72 9.5t59 6.5q62 8 109.5 7.5t57.5 -10.5q6 -7 6.5 -11t-5.5 -15q-14 -26 -53.5 -41t-123.5 -27q-53 -8 -151 -31
q-188 -43 -228 -30q-24 8 -41 29t-17 43q0 23 20 49.5t91 95.5q112 111 112 134q0 6 -20 2q-18 -4 -128 -9q-76 -4 -94.5 -3.5t-28.5 8.5q-14 10 -21.5 30.5t-2.5 35.5q4 18 23 24.5t67 7.5q60 1 75 6z" />
    <glyph glyph-name="bracketleft" unicode="[" 
 />
    <glyph glyph-name="backslash" unicode="\" horiz-adv-x="300" 
d="M40 627q19 10 25.5 10t25.5 -9q41 -20 50 -94q8 -74 48 -201t70 -178q23 -36 29 -69q4 -19 -8 -32q-25 -26 -54 -2t-69 102q-17 34 -26.5 57t-13 35t-11 40t-16.5 56q-9 29 -18 60t-16 52.5t-21 52.5q-26 57 -25 81.5t30 38.5z" />
    <glyph glyph-name="bracketright" unicode="]" 
 />
    <glyph glyph-name="a" unicode="a" horiz-adv-x="451" 
d="M221 617q16 11 38.5 7.5t44.5 -20.5q29 -21 48 -21q56 0 76.5 -32.5t7.5 -101.5q-8 -48 -17 -72q-9 -23 -9 -49q0 -23 -6 -48q-5 -26 4 -63q8 -34 3 -45t-29 -11q-36 0 -56 49q-7 18 -21 17t-48 -20q-42 -25 -63 -33.5t-46 -10.5q-46 -4 -83 27t-53 88q-10 38 29 150
q18 55 62.5 108.5t82.5 65.5q21 6 35 15zM290 490q-19 27 -26 26q-36 -3 -86 -53q-32 -33 -49 -65.5t-27 -81.5q-7 -32 -1.5 -43.5t27.5 -11.5q38 1 86 40.5t74 90.5q18 37 18.5 55t-16.5 43z" />
    <glyph glyph-name="b" unicode="b" horiz-adv-x="357" 
d="M100 720q7 11 24 13.5t32 -5.5q9 -5 19.5 -28.5t10.5 -38.5q0 -11 -14.5 -62t-21.5 -63q-6 -14 -6 -19q0 -7 19 -6t41 9q44 15 74 5t54 -49q15 -24 15 -70t-14 -70q-14 -23 -56 -62.5t-64 -50.5q-123 -62 -186 54q-14 26 -16.5 50.5t5.5 70.5q3 13 8 44t6 35q5 37 15 59
q3 8 25.5 91t29.5 93zM257 405q-5 13 -35 6t-51 -27q-10 -9 -36 -22q-24 -11 -26 -25q-2 -12 5.5 -21.5t18.5 -9.5q26 0 78 41.5t46 57.5z" />
    <glyph glyph-name="c" unicode="c" horiz-adv-x="409" 
d="M167 589q9 2 16 2.5t9.5 0.5t10.5 -2t13 -3q15 -4 28 -24.5t13 -41.5q0 -39 -52 -49q-25 -5 -48.5 -22.5t-35.5 -41.5q-13 -26 -13.5 -38.5t10.5 -30.5q11 -19 42 -26q39 -9 80 -5.5t110 20.5q23 6 30.5 6t13.5 -6q8 -8 2 -32q-6 -23 -23 -40t-49 -33
q-24 -11 -40.5 -13.5t-72.5 -2.5h-79l-33 22q-50 33 -73.5 89t-11.5 112q8 36 13 48q13 29 61.5 67.5t78.5 43.5z" />
    <glyph glyph-name="d" unicode="d" horiz-adv-x="483" 
d="M391 775q18 13 40.5 2t35.5 -38q9 -20 4 -78q-10 -112 -27 -185q-22 -112 -42 -179q-15 -52 -25 -93q-11 -45 -21 -50q-20 -13 -42 9t-27 61q-3 23 -8.5 26t-22.5 -10q-15 -9 -62 -33q-43 -22 -74 -23.5t-58 15.5q-69 47 -46 144q29 118 113 172q33 22 55 27.5t54 1.5
q31 -5 51 -25q22 -22 32.5 -19t20.5 34q27 88 27 156t22 85zM247 419q-15 14 -28.5 12t-38.5 -22q-58 -46 -58 -86q0 -13 2.5 -15t14.5 1q11 2 36 13q18 9 51.5 39t33.5 37.5t-13 20.5z" />
    <glyph glyph-name="e" unicode="e" horiz-adv-x="525" 
d="M110 612q18 17 27.5 21t28.5 4q31 0 53 -16.5t45 -55.5q49 -83 28 -147q-13 -42 -31.5 -68.5t-48.5 -48.5q-22 -15 -30.5 -23t-7 -13.5t18.5 -5.5t46 1q107 5 179 24q23 6 38.5 9t27.5 4t18.5 -1t10 -6.5t3 -11.5t-3.5 -18q-9 -32 -32.5 -48.5t-87.5 -35.5
q-85 -25 -164.5 -23t-125.5 31q-23 14 -50 51t-35 67q-10 33 -6.5 80.5t18.5 94.5q16 48 34 78t47 57zM195 499q-11 12 -19 12q-7 0 -28.5 -41.5t-21.5 -55.5q0 -12 14 -12q13 0 27.5 16t27.5 43q8 19 8 24t-8 14z" />
    <glyph glyph-name="f" unicode="f" horiz-adv-x="522" 
d="M247 778q18 22 37 23q8 0 8 -6q0 -5 24 -12q27 -9 71 -52t79 -97q38 -57 44 -76t-9 -34t-29 -9.5t-36 35.5q-16 21 -29.5 35.5t-30.5 37.5q-22 29 -41 39.5t-48 10.5q-19 0 -27.5 -3t-19.5 -15q-31 -32 -32 -145l-1 -47h26q26 0 61 6q48 10 81.5 -3t27.5 -39
q-7 -28 -39.5 -42t-141.5 -37q-58 -12 -67 -20q-9 -9 -26 -127q-8 -59 -12 -74t-13 -25q-26 -29 -65 10q-19 19 -24.5 36t-3 47t16.5 101q7 34 -1 73q-7 37 -0.5 54.5t30.5 23.5q17 4 30.5 19.5t20.5 38.5t67 140.5t72 132.5z" />
    <glyph glyph-name="g" unicode="g" horiz-adv-x="415" 
d="M247 528q34 11 71.5 -6t57.5 -50q9 -17 10.5 -29t-0.5 -47q-3 -49 2 -81q14 -72 16 -108t-6 -74q-21 -97 -80 -132q-75 -45 -185 -17q-44 12 -67.5 29t-38.5 51q-15 32 -17 48.5t8 24.5q17 14 60 -20q36 -27 76.5 -34.5t79.5 6.5q31 12 42 27t20 56q10 49 5.5 54
t-41.5 -19q-57 -39 -109 -20.5t-61 80.5q-3 23 6 73.5t19 64.5q33 49 69 82t63 41zM244 365q0 18 -23 -1q-22 -19 -19 -30q1 -4 8 -4t20.5 14t13.5 21z" />
    <glyph glyph-name="h" unicode="h" horiz-adv-x="510" 
d="M162 714q11 8 18.5 6t25.5 -17q23 -18 29 -41t-3 -55q-24 -84 -9 -84q43 0 80 -45q19 -24 28 -47.5t22 -87.5q2 -11 24 -37q13 -15 21.5 -19.5t22.5 -4.5q24 0 45.5 -7t27.5 -17q7 -15 5.5 -37.5t-11.5 -31.5q-22 -20 -62.5 -18.5t-77.5 23.5q-27 16 -47 44.5t-40 80.5
q-9 25 -15 33t-14 8q-16 0 -41.5 -30.5t-47.5 -74.5q-29 -56 -40 -66q-22 -20 -52 -8t-39 44q-5 20 1 47.5t20 46.5q12 15 35 59q14 28 21 56t20 115q11 77 23 114t30 51z" />
    <glyph glyph-name="i" unicode="i" horiz-adv-x="182" 
d="M89 750q9 11 30 7.5t35 -17.5q16 -15 18 -38.5t-9 -41t-30 -17.5q-21 0 -37 20t-18 44t11 43zM70 493q25 25 58 -2.5t34 -74.5q0 -19 -21 -101t-30 -101q-9 -15 -20 -21.5t-31 -6.5q-16 0 -23.5 3t-14.5 12q-13 17 -12 41t18 75q19 60 21 91q4 43 8 59.5t13 25.5z" />
    <glyph glyph-name="j" unicode="j" horiz-adv-x="437" 
d="M339 704q19 18 26 18q12 0 33 -21.5t25 -37.5q9 -32 -1 -50t-37 -18q-29 0 -46.5 19t-17.5 49q0 23 18 41zM236 481q9 9 28.5 11.5t29.5 -4.5q22 -14 51.5 -70t42.5 -109q6 -22 3.5 -77.5t-9.5 -69.5q-9 -16 -31.5 -39.5t-39.5 -33.5q-21 -14 -70 -16q-33 -2 -51 1
t-58 15q-35 11 -51.5 19.5t-30.5 22.5q-21 21 -33.5 55t-3.5 45t25 7.5t34 -19.5q14 -12 29.5 -18.5t52.5 -14.5l60 -13l24 13q35 18 44 31t9 47q0 36 -8.5 62.5t-33.5 67.5q-20 34 -23 53.5t10 33.5z" />
    <glyph glyph-name="k" unicode="k" horiz-adv-x="493" 
d="M167 695q25 31 59 -2q20 -21 22 -50t-13 -85q-9 -32 -13.5 -52t-6 -32.5t0 -17.5t6.5 -5q10 0 73 42q109 72 138 72q13 0 26 -14.5t20 -37.5q5 -15 3.5 -20.5t-11.5 -16.5q-15 -15 -48 -34q-63 -36 -109 -72t-46 -50q0 -13 15.5 -36.5t36.5 -44.5q20 -19 30.5 -24
t33.5 -7q34 -3 44 -10q13 -12 12 -40t-17 -44q-10 -12 -35 -13t-56 10q-26 9 -62 41t-51 61q-29 54 -60 -5q-9 -16 -19 -43q-12 -34 -31.5 -55t-38.5 -21q-43 0 -56 61q-5 23 -4 33.5t10 32.5q42 107 59.5 160t37.5 132q29 117 34 146q4 26 16 41z" />
    <glyph glyph-name="l" unicode="l" horiz-adv-x="211" 
d="M111 724q8 10 36 9q19 -2 25.5 -6t13.5 -20q11 -22 14.5 -76.5t-4.5 -97.5q-6 -40 -27.5 -113.5t-34.5 -101.5q-12 -28 -21 -75q-7 -43 -17 -67q-13 -26 -36 -26t-39 27q-8 13 -10 23.5t0 32.5q6 62 43 175q23 71 32 116t12 111q5 78 13 89z" />
    <glyph glyph-name="m" unicode="m" horiz-adv-x="592" 
d="M219 549q26 27 36.5 33.5t26.5 6.5q48 0 77 -54q25 -46 39 -19q7 11 38 36q20 16 30.5 20.5t28.5 4.5q29 0 45 -13q24 -18 30 -45t8 -123q0 -20 1 -54q3 -114 2 -134t-10 -28q-2 -3 -4 -4q-11 -11 -17 -12.5t-24 3.5q-32 9 -39.5 34t-13.5 153q-3 53 -5.5 67.5t-9.5 15.5
q-10 2 -19 -18q-10 -24 -45 -76q-26 -40 -43.5 -78t-17.5 -55q0 -12 -6.5 -27t-14.5 -23q-11 -11 -36.5 -11t-34.5 11q-49 56 -14 126q17 33 27.5 65t11 49.5t-7.5 19.5q-22 0 -61.5 -69t-52.5 -131q-9 -40 -21.5 -53t-42.5 -14q-43 -1 -63 54q-7 17 -7 25.5t9 30.5
q13 30 28 108q15 75 23 91q6 14 23.5 18.5t39.5 -0.5q16 -5 20.5 -3.5t13.5 13.5q9 14 52 59z" />
    <glyph glyph-name="n" unicode="n" horiz-adv-x="454" 
d="M341 613q9 2 15 2.5t8.5 0.5t10.5 -2l12 -3q17 -4 36 -35l21 -31l-1 -85q0 -96 -7 -168.5t-18 -87.5q-16 -21 -41.5 -18.5t-35.5 27.5q-8 19 -8.5 102.5t7.5 117.5q4 19 3.5 26t-6.5 13q-30 31 -103 -74q-23 -34 -52 -80.5t-34 -59.5q-37 -87 -51 -100q-10 -9 -36 -7
q-42 3 -49.5 43.5t22.5 99.5q23 46 33 60q9 12 23 72.5t10 66.5q-5 8 1.5 26.5t16.5 29.5q27 30 72 0q24 -16 31 -10q95 69 120 74z" />
    <glyph glyph-name="o" unicode="o" horiz-adv-x="399" 
d="M140 568q88 28 175 -30q22 -14 32 -26t23 -37q32 -67 7 -148q-6 -22 -17 -37.5t-39 -45.5q-48 -50 -85.5 -67.5t-97.5 -17.5q-52 0 -70 9t-40 48q-11 20 -14.5 33.5t-3.5 35.5q-1 85 35 170q23 57 43 80t52 33zM276 449q-20 20 -32 19q-11 0 -44.5 -21t-46.5 -36
q-15 -16 -30.5 -67t-10.5 -61q14 -21 51.5 -8t79.5 55q44 42 51 68t-18 51z" />
    <glyph glyph-name="p" unicode="p" horiz-adv-x="432" 
d="M207 625q16 12 43 12q17 0 26.5 -4.5t29.5 -22.5q31 -30 50.5 -63t40.5 -94q17 -50 21 -71t4 -67q1 -56 -7.5 -79t-36.5 -40q-15 -9 -33 -11t-83 -2q-95 -1 -103 -10q-7 -8 -20 -55.5t-17 -79.5q-3 -28 -14.5 -41t-33.5 -13q-20 0 -35.5 14t-22.5 36q-10 36 -3 76t39 138
q43 133 52 163q6 24 16.5 50.5t29.5 64.5t22 46q20 40 35 53zM286 492q-13 13 -20 13q-9 0 -21 -16.5t-17 -34.5q-31 -120 -31 -144q0 -33 40 -23q24 7 48 7t31 7q14 14 1.5 91.5t-31.5 99.5z" />
    <glyph glyph-name="q" unicode="q" horiz-adv-x="445" 
d="M204 565q19 5 26.5 5t25.5 -4q21 -5 56 -31.5t48 -46.5q11 -18 12.5 -49t-7.5 -49q-8 -13 -22 -80q-4 -22 -27 -129q-13 -62 -9 -66t49 18q42 21 57.5 22t19.5 -16q13 -64 -64 -122q-34 -25 -55 -48q-18 -18 -26.5 -21t-40.5 -3q-38 0 -49.5 9t-23.5 48q-6 21 -5 32t9 38
q12 38 12 49q0 12 -10 13.5t-27 -8.5q-44 -27 -88 5q-28 20 -40 47t-14 74q-3 52 10 102q15 56 26 77.5t45 56.5q64 66 112 77zM241 420q0 14 -2.5 18t-12.5 5q-15 2 -52 -36q-22 -22 -32 -37.5t-18 -38.5q-23 -73 -4 -73q7 0 41.5 35t34.5 42t22 35t23 50z" />
    <glyph glyph-name="r" unicode="r" horiz-adv-x="416" 
d="M280 557q22 7 49.5 7t39.5 -8q24 -17 34 -51.5t-5 -47.5q-9 -8 -50 -11q-84 -7 -153 -78q-25 -25 -31.5 -38t-15.5 -54q-14 -66 -16 -87q-2 -19 -7.5 -29.5t-20.5 -23.5q-24 -24 -39 -20q-35 9 -46 34.5t-8 88.5q2 37 6 56.5t18 52.5q14 32 18 49.5t4 41.5q0 71 24 84
q13 7 30.5 6t27.5 -9q26 -19 83 10q34 18 58 27z" />
    <glyph glyph-name="s" unicode="s" horiz-adv-x="345" 
d="M203 592q42 15 80.5 -9t48.5 -72q8 -36 -6.5 -50t-51.5 -9q-17 4 -27.5 -1.5t-10.5 -17.5q0 -10 15 -45t29 -58q19 -30 26 -58q7 -22 6.5 -30t-6.5 -23q-12 -24 -33 -40.5t-44 -20.5q-23 -3 -68.5 6.5t-66.5 21.5q-24 15 -44 40.5t-27 50.5q-13 47 -13 59.5t13 23.5
q11 11 15.5 11.5t16.5 -6.5q17 -11 43 -45q19 -24 27 -29.5t24 -5.5q48 0 21 39q-23 33 -32.5 94.5t2.5 104.5q6 23 24 42.5t39 26.5z" />
    <glyph glyph-name="t" unicode="t" horiz-adv-x="435" 
d="M202 673q18 17 39 10t39 -36q11 -18 12.5 -41.5t-8.5 -40.5q-13 -22 -7.5 -26.5t39.5 -0.5q84 11 101 -3q15 -13 4 -42t-36 -44q-18 -10 -83 -21q-67 -11 -80 -19q-13 -7 -21.5 -26t-15.5 -58q-4 -20 -5 -31.5t2.5 -19.5t10 -10.5t22.5 0t35 8t51 17.5q57 19 73 18.5
t16 -22.5q0 -15 -10 -41t-19 -36q-10 -12 -59 -36q-33 -17 -48 -21t-48 -4q-30 0 -43.5 2.5t-27.5 11.5q-30 18 -42.5 43t-15.5 69q-3 49 5 79q5 22 3.5 28t-16.5 18q-39 33 -49 44t-10 22q0 16 15 25.5t50 17.5q38 8 48 18q8 7 16 23t35 78q15 34 28 47z" />
    <glyph glyph-name="u" unicode="u" horiz-adv-x="390" 
d="M287 527q44 37 82 -25q9 -13 10.5 -27.5t-1.5 -61.5q-4 -75 -20 -173.5t-27 -111.5q-23 -31 -67 10q-24 22 -36.5 20.5t-43.5 -28.5q-39 -36 -62 -40.5t-53 17.5q-24 18 -37 51q-16 45 -20 67.5t1 41.5q7 25 7 106q0 83 10 107.5t44 24.5q20 0 36 -18l18 -17l-4 -112
q-3 -76 -2 -94.5t9 -21.5q19 -7 80 73q33 44 46 76t13 73q0 34 2.5 43t14.5 20z" />
    <glyph glyph-name="v" unicode="v" horiz-adv-x="336" 
d="M252 557q28 21 57 -17q13 -18 15.5 -27.5t-0.5 -35.5q-5 -41 -13 -69q-9 -30 -50.5 -113t-56.5 -101q-16 -20 -30 -49q-20 -40 -45.5 -51.5t-50.5 7.5q-9 7 -15.5 19.5t-10.5 31.5t-6 33.5t-5 41t-4 37.5q-1 10 -5.5 49.5t-6.5 55.5q-3 34 -7.5 60t-6.5 48q-6 52 42 52
q13 0 21.5 -4.5t20.5 -16.5q19 -21 26 -45.5t7 -76.5v-56l15 1q17 2 40 46.5t40 107.5q18 65 29 72z" />
    <glyph glyph-name="w" unicode="w" horiz-adv-x="580" 
d="M484 593q17 17 23 19t23 -5q21 -8 30.5 -22t9.5 -37q0 -19 -4 -29.5t-17 -28.5q-37 -48 -57 -115q-25 -86 -40 -123q-7 -18 -20 -64q-21 -75 -61 -75q-19 0 -29 6q-18 10 -52 112q-21 64 -29.5 84.5t-14.5 20.5q-11 0 -38.5 -47.5t-53.5 -113.5q-18 -45 -30.5 -59.5
t-33.5 -14.5t-42 21q-37 41 -29 115q7 56 6 131t-9 109q-6 27 -6 36.5t6 20.5q9 15 24 24q10 6 16.5 5.5t21.5 -7.5q26 -12 37.5 -35.5t13.5 -68.5q3 -50 10 -50q6 1 22.5 26.5t25.5 51.5q12 26 22 31q11 6 34.5 5.5t32.5 -6.5q12 -10 32 -42.5t31 -59.5q16 -40 28 -41
t22 38q8 31 44 101.5t51 86.5z" />
    <glyph glyph-name="x" unicode="x" horiz-adv-x="400" 
d="M311 591q24 17 51.5 -3t27.5 -54q0 -18 -10 -31.5t-60 -63.5q-43 -44 -56 -60.5t-13 -27.5q0 -21 13 -38.5t31 -20.5q33 -7 50 -45.5t-1 -66.5q-20 -31 -42 -31q-10 0 -48.5 28t-62.5 53q-20 22 -28 22q-6 0 -39 -44q-29 -40 -40 -49.5t-30 -9.5q-20 0 -32 12.5t-12 33.5
t10.5 44t42.5 72q37 56 37 70q0 10 -16 38.5t-35 50.5q-14 16 -21.5 40t-3.5 39q4 16 27 28q16 7 22 7.5t18 -5.5q23 -12 37 -27.5t27 -44.5q16 -38 25 -38t63 56q52 54 68 66z" />
    <glyph glyph-name="y" unicode="y" horiz-adv-x="492" 
d="M160 519q21 25 61 -12q28 -25 35 -48.5t7 -89.5q0 -49 2 -63t8 -16q10 -4 33 21q49 56 59 127q5 34 12.5 44.5t27.5 10.5q19 0 40.5 -18t28.5 -40q8 -26 7.5 -114t-10.5 -126q-28 -121 -64 -162q-25 -29 -47.5 -41t-66.5 -21q-38 -8 -53 -8t-56 8q-43 9 -66.5 18.5
t-58.5 32.5q-49 33 -49 76v23l22 -4q23 -4 44 -21q40 -31 126 -31q44 0 66.5 7t44.5 29q40 37 40 70q0 10 -2 12t-11 -1q-17 -6 -59 -4.5t-57 8.5q-18 8 -39 47q-13 26 -17.5 44t-8.5 62q-15 162 1 180z" />
    <glyph glyph-name="z" unicode="z" horiz-adv-x="533" 
d="M84 507q18 3 51.5 2.5t48.5 -4.5q23 -6 76 -25q34 -13 50.5 -23t41.5 -34t31 -34t6 -25q0 -19 -14.5 -37t-53.5 -47q-22 -17 -22 -26q0 -7 5.5 -7.5t26.5 2.5q30 6 96 6q55 0 71.5 -8.5t20.5 -38.5l4 -21l-42 -10q-42 -10 -62 -10q-22 0 -86 -11q-77 -12 -121 -19
q-54 -6 -83 -13q-27 -6 -61 4q-27 7 -38.5 18.5t-16.5 34.5q-7 25 4 39t58 42q60 35 83 53q33 23 56 36q31 19 31 25q0 14 -34 23t-76 5q-29 -2 -37 0t-21 15q-23 23 -20.5 53t27.5 35z" />
    <glyph glyph-name="braceleft" unicode="{" 
 />
    <glyph glyph-name="bar" unicode="|" 
 />
    <glyph glyph-name="braceright" unicode="}" 
 />
    <glyph glyph-name="asciitilde" unicode="~" horiz-adv-x="652" 
d="M67 392q16 12 25.5 14t33.5 1q34 -4 57 -15q43 -22 81.5 -48.5t47.5 -39.5q36 -52 56 -52q18 0 78.5 34t90.5 60q28 26 35 26q9 0 34.5 -18t30.5 -29q10 -19 -3.5 -37t-66.5 -55q-79 -55 -92 -63q-74 -46 -164 -4q-21 11 -30.5 20t-20.5 31q-18 33 -34 50t-43 31
t-44 13.5t-34 -14.5t-39.5 -15.5t-39 9.5t-16.5 29q0 14 16 34t41 38z" />
    <glyph glyph-name="cent" unicode="&#xa2;" 
 />
    <glyph glyph-name="sterling" unicode="&#xa3;" horiz-adv-x="689" 
d="M361 631q48 29 90.5 16t61.5 -69q9 -27 8.5 -40.5t-11.5 -25.5q-12 -12 -32.5 -13t-43.5 10q-16 8 -20 7.5t-13 -11.5q-12 -14 -15.5 -29.5t3 -24.5t19.5 -8q56 5 83 6q45 3 60 2t26 -8q17 -10 17 -30q0 -24 -16.5 -38.5t-42.5 -14.5q-19 0 -19 -9t12.5 -9t33.5 -9
q13 -7 16.5 -12.5t3.5 -17.5q0 -19 -13.5 -30.5t-45.5 -18.5q-29 -6 -70 -17q-34 -9 -51 -9q-19 0 -25 -11.5t-6 -46.5q0 -27 2.5 -37t11.5 -18q13 -12 35 -17q17 -3 47.5 -17.5t49.5 -28.5q15 -10 44 -11t45 9q14 8 36 8.5t29 -6.5q10 -10 7.5 -30t-13.5 -29
q-4 -3 -16.5 -14t-18.5 -16q-15 -13 -25.5 -15.5t-44.5 -2.5t-47 3.5t-42 20.5q-55 34 -86.5 40t-49.5 -14q-14 -16 -38 -33q-18 -13 -32.5 -15t-84.5 -2h-92q-39 39 -78 80v100h17q18 0 73 -12q48 -10 100.5 -11.5t61.5 6.5q7 8 7 39t-7 37q-8 6 -32 9q-24 4 -43 18.5
t-27.5 32t-6 37t18.5 32.5q17 13 18 19t-11 20q-20 26 -7.5 48t45.5 20q32 -2 42 4.5t10 28.5q0 48 28.5 103.5t63.5 74.5z" />
    <glyph glyph-name="section" unicode="&#xa7;" 
 />
    <glyph glyph-name="guillemotleft" unicode="&#xab;" horiz-adv-x="614" 
d="M233 504q50 46 88 7q11 -11 14.5 -20t3.5 -27q0 -20 -3.5 -28t-16.5 -19q-23 -19 -32 -24q-11 -8 -8 -12q7 -6 25.5 2.5t38.5 26.5q24 22 52 43q23 18 32 40q24 62 85 18q38 -27 29 -62q-4 -15 -30.5 -44.5t-55.5 -51.5q-13 -9 -25.5 -22.5t-16.5 -22.5l-11 -20l37 -37
q33 -35 89 -64q50 -25 63 -36t13 -29q0 -20 -12 -28t-42 -7q-60 1 -149 67q-29 23 -48 28q-21 5 -52.5 27.5t-46.5 44.5q-13 17 -15.5 26.5t0.5 33.5l4 34h-20q-20 0 -39 -19q-34 -33 -8 -73q18 -25 64 -70.5t64 -54.5q47 -25 47 -65q0 -21 -7.5 -29t-27.5 -8q-41 0 -109 61
q-12 10 -40.5 35.5t-38.5 34.5q-57 52 -92.5 111t-22.5 83q6 11 59 39q96 51 161 111z" />
    <glyph glyph-name="guillemotright" unicode="&#xbb;" horiz-adv-x="603" 
d="M154 505q12 12 31 12q17 0 45.5 -18t37.5 -33q8 -15 20 -15t23 15q13 15 35.5 15t43.5 -17q8 -6 54 -42q25 -18 63 -60t42 -46q44 -44 44 -84q0 -19 -11.5 -34t-40.5 -33q-21 -13 -84 -55q-39 -28 -83 -48.5t-62 -20.5q-15 0 -38.5 19t-23.5 32q0 17 19.5 36.5t49.5 32.5
q34 16 75.5 46t47.5 44q8 16 5 25t-22 30q-35 39 -42 13q-1 -4 -1 -10q0 -19 -10.5 -39t-28.5 -34q-25 -18 -80 -73q-54 -53 -93 -74t-83 -20q-72 2 -77 28q-2 12 25.5 38t49.5 32q26 9 86.5 69t60.5 78q0 33 -42 73q-33 32 -43.5 66t7.5 52z" />
    <glyph glyph-name="questiondown" unicode="&#xbf;" 
 />
    <glyph glyph-name="Agrave" unicode="&#xc0;" 
 />
    <glyph glyph-name="Aacute" unicode="&#xc1;" 
 />
    <glyph glyph-name="Acircumflex" unicode="&#xc2;" 
 />
    <glyph glyph-name="Adieresis" unicode="&#xc4;" 
 />
    <glyph glyph-name="Ccedilla" unicode="&#xc7;" 
 />
    <glyph glyph-name="Egrave" unicode="&#xc8;" 
 />
    <glyph glyph-name="Eacute" unicode="&#xc9;" 
 />
    <glyph glyph-name="Ecircumflex" unicode="&#xca;" 
 />
    <glyph glyph-name="Edieresis" unicode="&#xcb;" 
 />
    <glyph glyph-name="Icircumflex" unicode="&#xce;" 
 />
    <glyph glyph-name="Idieresis" unicode="&#xcf;" 
 />
    <glyph glyph-name="Ntilde" unicode="&#xd1;" 
 />
    <glyph glyph-name="Oacute" unicode="&#xd3;" 
 />
    <glyph glyph-name="Ocircumflex" unicode="&#xd4;" 
 />
    <glyph glyph-name="Odieresis" unicode="&#xd6;" 
 />
    <glyph glyph-name="Ugrave" unicode="&#xd9;" 
 />
    <glyph glyph-name="Uacute" unicode="&#xda;" 
 />
    <glyph glyph-name="Ucircumflex" unicode="&#xdb;" 
 />
    <glyph glyph-name="Udieresis" unicode="&#xdc;" 
 />
    <glyph glyph-name="germandbls" unicode="&#xdf;" 
 />
    <glyph glyph-name="agrave" unicode="&#xe0;" 
 />
    <glyph glyph-name="aacute" unicode="&#xe1;" 
 />
    <glyph glyph-name="acircumflex" unicode="&#xe2;" 
 />
    <glyph glyph-name="adieresis" unicode="&#xe4;" 
 />
    <glyph glyph-name="ccedilla" unicode="&#xe7;" 
 />
    <glyph glyph-name="egrave" unicode="&#xe8;" 
 />
    <glyph glyph-name="eacute" unicode="&#xe9;" 
 />
    <glyph glyph-name="ecircumflex" unicode="&#xea;" 
 />
    <glyph glyph-name="edieresis" unicode="&#xeb;" 
 />
    <glyph glyph-name="icircumflex" unicode="&#xee;" 
 />
    <glyph glyph-name="idieresis" unicode="&#xef;" 
 />
    <glyph glyph-name="oacute" unicode="&#xf3;" 
 />
    <glyph glyph-name="ocircumflex" unicode="&#xf4;" 
 />
    <glyph glyph-name="odieresis" unicode="&#xf6;" 
 />
    <glyph glyph-name="ugrave" unicode="&#xf9;" 
 />
    <glyph glyph-name="uacute" unicode="&#xfa;" 
 />
    <glyph glyph-name="ucircumflex" unicode="&#xfb;" 
 />
    <glyph glyph-name="udieresis" unicode="&#xfc;" 
 />
    <glyph glyph-name="eogonek" unicode="&#x119;" 
 />
    <glyph glyph-name="quoteright" unicode="&#x2019;" horiz-adv-x="204" 
d="M97 663q21 23 60 -2q35 -21 37.5 -44t-25.5 -65q-17 -25 -37.5 -76.5t-20.5 -69.5q0 -8 -12 -24q-19 -23 -49.5 -12.5t-38.5 43.5q-4 15 4 57t20 68q27 57 33 72q22 45 29 53z" />
    <glyph glyph-name="quotedblleft" unicode="&#x201c;" horiz-adv-x="413" 
d="M112 278q4 6 11.5 6t29.5 -5q87 -20 67 -115q-8 -38 -39 -59.5t-76 -21.5q-37 0 -66 23t-29 52q0 21 10 27.5t37 3.5q27 -4 34.5 4t10.5 42q3 35 10 43zM262 275q1 8 5.5 10.5t22.5 2.5q19 0 28.5 -4.5t28.5 -23.5q33 -30 44.5 -51.5t11.5 -50.5q0 -62 -47 -83
q-19 -10 -35.5 -6t-37.5 23q-18 18 -20 38.5t13 39.5l13 17l-13 21q-17 32 -14 67z" />
    <glyph glyph-name="quotedblright" unicode="&#x201d;" horiz-adv-x="326" 
d="M217 698q11 12 26 12t34.5 -13.5t25.5 -27.5q9 -25 10 -37t-7 -30q-6 -17 -6 -23t6 -15q9 -12 9.5 -31t-6.5 -27q-17 -16 -63 4q-25 12 -38 40q-16 32 -13 79.5t22 68.5zM38 692q25 13 59 -12q21 -15 26.5 -32t-0.5 -46q-4 -19 -1.5 -26.5t22.5 -29.5q27 -31 27 -38
q0 -21 -33.5 -21.5t-68.5 20.5q-28 16 -41 37t-17 57q-3 26 5.5 54.5t21.5 36.5z" />
    <glyph glyph-name="bullet" unicode="&#x2022;" 
 />
    <glyph glyph-name="Euro" unicode="&#x20ac;" horiz-adv-x="543" 
d="M407 653q35 13 64 4.5t47 -35.5q15 -22 15 -29.5t-13 -23.5t-61 -28q-74 -19 -104 -45q-17 -15 9 -15q18 0 33.5 -13t15.5 -27q0 -15 -21 -38t-21 -28q0 -6 20 -15q26 -12 21 -34t-37 -37q-25 -13 -83 -25t-89 -12q-35 0 -48 -13t-13 -50t12 -56q9 -14 16 -17t36 -3
q33 0 82.5 11.5t92.5 28.5q47 18 64 13t17 -38q0 -36 -34.5 -59.5t-116.5 -42.5q-65 -15 -102.5 -13.5t-72.5 20.5q-26 13 -41 31t-34 55q-31 62 -16 123q5 20 3 27.5t-17 28.5q-37 48 -6 77q17 15 21 15t8 30q4 32 18.5 47t42.5 18q18 2 29 7t25 19q35 32 110.5 77.5
t127.5 64.5zM353 375q0 9 -15 9t-15 -9t15 -9t15 9z" />
  </font>
</defs>
</svg>
